<svg width="25" height="25" viewBox="0 0 25 25" fill="none" xmlns="http://www.w3.org/2000/svg">
<path d="M7.29175 21.875C6.71883 21.875 6.22838 21.671 5.82039 21.263C5.41241 20.855 5.20841 20.3646 5.20841 19.7917V6.25H4.16675V4.16667H9.37508V3.125H15.6251V4.16667H20.8334V6.25H19.7917V19.7917C19.7917 20.3646 19.5878 20.855 19.1798 21.263C18.7718 21.671 18.2813 21.875 17.7084 21.875H7.29175ZM17.7084 6.25H7.29175V19.7917H17.7084V6.25ZM9.37508 17.7083H11.4584V8.33333H9.37508V17.7083ZM13.5417 17.7083H15.6251V8.33333H13.5417V17.7083Z" fill="#23409A"/>
<path d="M7.29175 21.875C6.71883 21.875 6.22838 21.671 5.82039 21.263C5.41241 20.855 5.20841 20.3646 5.20841 19.7917V6.25H4.16675V4.16667H9.37508V3.125H15.6251V4.16667H20.8334V6.25H19.7917V19.7917C19.7917 20.3646 19.5878 20.855 19.1798 21.263C18.7718 21.671 18.2813 21.875 17.7084 21.875H7.29175ZM17.7084 6.25H7.29175V19.7917H17.7084V6.25ZM9.37508 17.7083H11.4584V8.33333H9.37508V17.7083ZM13.5417 17.7083H15.6251V8.33333H13.5417V17.7083Z" fill="black" fill-opacity="0.2"/>
</svg>
