<svg width="20" height="20" viewBox="0 0 20 20" fill="none" xmlns="http://www.w3.org/2000/svg">
<g clip-path="url(#clip0_179_4936)">
<path d="M9.16667 3.33344H3.33334C2.89131 3.33344 2.46739 3.50904 2.15483 3.8216C1.84227 4.13416 1.66667 4.55808 1.66667 5.00011V16.6668C1.66667 17.1088 1.84227 17.5327 2.15483 17.8453C2.46739 18.1578 2.89131 18.3334 3.33334 18.3334H15C15.442 18.3334 15.866 18.1578 16.1785 17.8453C16.4911 17.5327 16.6667 17.1088 16.6667 16.6668V10.8334M15.4167 2.08344C15.7482 1.75192 16.1978 1.56567 16.6667 1.56567C17.1355 1.56567 17.5852 1.75192 17.9167 2.08344C18.2482 2.41496 18.4344 2.8646 18.4344 3.33344C18.4344 3.80228 18.2482 4.25192 17.9167 4.58344L10 12.5001L6.66667 13.3334L7.50001 10.0001L15.4167 2.08344Z" stroke="#23409A" stroke-width="2" stroke-linecap="round" stroke-linejoin="round"/>
<path d="M9.16667 3.33344H3.33334C2.89131 3.33344 2.46739 3.50904 2.15483 3.8216C1.84227 4.13416 1.66667 4.55808 1.66667 5.00011V16.6668C1.66667 17.1088 1.84227 17.5327 2.15483 17.8453C2.46739 18.1578 2.89131 18.3334 3.33334 18.3334H15C15.442 18.3334 15.866 18.1578 16.1785 17.8453C16.4911 17.5327 16.6667 17.1088 16.6667 16.6668V10.8334M15.4167 2.08344C15.7482 1.75192 16.1978 1.56567 16.6667 1.56567C17.1355 1.56567 17.5852 1.75192 17.9167 2.08344C18.2482 2.41496 18.4344 2.8646 18.4344 3.33344C18.4344 3.80228 18.2482 4.25192 17.9167 4.58344L10 12.5001L6.66667 13.3334L7.50001 10.0001L15.4167 2.08344Z" stroke="black" stroke-opacity="0.2" stroke-width="2" stroke-linecap="round" stroke-linejoin="round"/>
</g>
<defs>
<clipPath id="clip0_179_4936">
<rect width="20" height="20" fill="white"/>
</clipPath>
</defs>
</svg>
